<?xml version="1.0" encoding="UTF-8" standalone="no"?>
<svg width="364.419mm" height="25.4mm"
 xmlns="http://www.w3.org/2000/svg" xmlns:xlink="http://www.w3.org/1999/xlink"  version="1.2" baseProfile="tiny">
<title>Qt SVG Document</title>
<desc>Generated with Qt</desc>
<defs>
</defs>
<g fill="none" stroke="black" stroke-width="1" fill-rule="evenodd" stroke-linecap="square" stroke-linejoin="bevel" >

<g fill="none" stroke="#000000" stroke-opacity="1" stroke-width="1" stroke-linecap="square" stroke-linejoin="bevel" transform="matrix(1,0,0,1,0,0)"
font-family="Sans Serif" font-size="9" font-weight="400" font-style="normal" 
>
</g>

<g fill="none" stroke="#000000" stroke-opacity="1" stroke-width="1" stroke-linecap="square" stroke-linejoin="bevel" transform="matrix(1,0,0,1,0,0)"
font-family="Sans Serif" font-size="9" font-weight="400" font-style="normal" 
>
</g>

<g fill="none" stroke="#000000" stroke-opacity="1" stroke-width="1" stroke-linecap="square" stroke-linejoin="bevel" transform="matrix(1.99934,0,0,1.99934,0.000799735,71.9761)"
font-family="Sans Serif" font-size="9" font-weight="400" font-style="normal" 
>
</g>

<g fill="#ffffff" fill-opacity="1" stroke="none" transform="matrix(1.99934,0,0,1.99934,0.000799735,71.9761)"
font-family="Sans Serif" font-size="9" font-weight="400" font-style="normal" 
>
<rect x="-0.0004" y="-36" width="516.671" height="36"/>
</g>

<g fill="none" stroke="#000000" stroke-opacity="1" stroke-width="1" stroke-linecap="square" stroke-linejoin="bevel" transform="matrix(1.99934,0,0,1.99934,0.000799735,71.9761)"
font-family="Sans Serif" font-size="9" font-weight="400" font-style="normal" 
>
</g>

<g fill="none" stroke="#000000" stroke-opacity="1" stroke-width="1" stroke-linecap="square" stroke-linejoin="bevel" transform="matrix(1.99934,0,0,1.99934,0.000799735,71.9761)"
font-family="Sans Serif" font-size="9" font-weight="400" font-style="normal" 
>
</g>

<g fill="none" stroke="#000000" stroke-opacity="1" stroke-width="1" stroke-linecap="square" stroke-linejoin="bevel" transform="matrix(1.99934,0,0,1.99934,0.000799735,71.9761)"
font-family="Sans Serif" font-size="9" font-weight="400" font-style="normal" 
>
</g>

<g fill="none" stroke="#000000" stroke-opacity="1" stroke-width="1" stroke-linecap="square" stroke-linejoin="bevel" transform="matrix(1.99934,0,0,1.99934,0.000799735,71.9761)"
font-family="Sans Serif" font-size="9" font-weight="400" font-style="normal" 
>
</g>

<g fill="none" stroke="#000000" stroke-opacity="1" stroke-width="1" stroke-linecap="square" stroke-linejoin="round" transform="matrix(1.99934,0,0,1.99934,0.000799735,71.9761)"
font-family="Sans Serif" font-size="9" font-weight="400" font-style="normal" 
>
<ellipse cx="393.18" cy="-18" rx="122.991" ry="17.5"/>
</g>

<g fill="none" stroke="#000000" stroke-opacity="1" stroke-width="1" stroke-linecap="square" stroke-linejoin="bevel" transform="matrix(1.99934,0,0,1.99934,0.000799735,71.9761)"
font-family="Sans Serif" font-size="9" font-weight="400" font-style="normal" 
>
</g>

<g fill="none" stroke="#000000" stroke-opacity="1" stroke-width="1" stroke-linecap="square" stroke-linejoin="bevel" transform="matrix(1.99934,0,0,1.99934,608.722,22.9924)"
font-family="Sans Serif" font-size="9" font-weight="400" font-style="normal" 
>
</g>

<g fill="none" stroke="#000000" stroke-opacity="1" stroke-width="1" stroke-linecap="square" stroke-linejoin="bevel" transform="matrix(1.99934,0,0,1.99934,608.722,22.9924)"
font-family="sans" font-size="11" font-weight="100" font-style="normal" 
>
</g>

<g fill="#000000" fill-opacity="1" stroke="#000000" stroke-opacity="1" stroke-width="1" stroke-linecap="square" stroke-linejoin="round" transform="matrix(1.99934,0,0,1.99934,608.722,22.9924)"
font-family="sans" font-size="11" font-weight="100" font-style="normal" 
>
<path vector-effect="none" fill-rule="nonzero" d="M2.96875,1.98438 L3.53125,1.98438 L0.734375,11.0156 L0.171875,11.0156 L2.96875,1.98438 M8.21875,4.40625 C8.13542,4.36458 8.02604,4.33333 7.89062,4.3125 C7.76562,4.29167 7.61458,4.28125 7.4375,4.28125 C6.82292,4.28125 6.31771,4.50521 5.92188,4.95312 C5.59896,5.31771 5.4375,5.94271 5.4375,6.82812 L5.4375,10 L4.95312,10 L4.95312,3.98438 L5.4375,3.98438 L5.4375,5.10938 C5.60417,4.78646 5.83333,4.51562 6.125,4.29688 C6.52083,3.99479 6.98958,3.84375 7.53125,3.84375 C7.67708,3.84375 7.80208,3.84896 7.90625,3.85938 C8.01042,3.85938 8.11458,3.86979 8.21875,3.89062 L8.21875,4.40625 M14.1562,6.75 L14.1562,7.0625 L9.59375,7.0625 C9.59375,8.02083 9.78125,8.69792 10.1562,9.09375 C10.5729,9.52083 11.1875,9.73438 12,9.73438 C12.2188,9.73438 12.5052,9.6875 12.8594,9.59375 C13.2135,9.5 13.5677,9.35938 13.9219,9.17188 L13.9219,9.6875 C13.5677,9.84375 13.2057,9.96094 12.8359,10.0391 C12.4661,10.1172 12.1719,10.1562 11.9531,10.1562 C11.026,10.1562 10.3281,9.90625 9.85938,9.40625 C9.34896,8.875 9.09375,8.09375 9.09375,7.0625 C9.09375,5.98958 9.32292,5.1875 9.78125,4.65625 C10.2604,4.11458 10.9271,3.84375 11.7812,3.84375 C12.5625,3.84375 13.1562,4.10417 13.5625,4.625 C13.9583,5.16667 14.1562,5.875 14.1562,6.75 M13.6562,6.64062 C13.6562,5.79688 13.4635,5.18229 13.0781,4.79688 C12.7656,4.45312 12.3333,4.28125 11.7812,4.28125 C11.1875,4.28125 10.6875,4.45833 10.2812,4.8125 C9.90625,5.14583 9.68229,5.75521 9.60938,6.64062 L13.6562,6.64062 M20.3438,4.28125 L20.3438,4.79688 C20.0521,4.61979 19.8073,4.5 19.6094,4.4375 C19.276,4.33333 18.9583,4.28125 18.6562,4.28125 C17.7917,4.28125 17.1719,4.5026 16.7969,4.94531 C16.4219,5.38802 16.2344,6.07292 16.2344,7 C16.2344,7.9375 16.4219,8.6276 16.7969,9.07031 C17.1719,9.51302 17.7917,9.73438 18.6562,9.73438 C18.9479,9.73438 19.2292,9.69271 19.5,9.60938 C19.7917,9.53646 20.0729,9.42188 20.3438,9.26562 L20.3438,9.76562 C20.0729,9.90104 19.7917,10 19.5,10.0625 C19.1979,10.125 18.901,10.1562 18.6094,10.1562 C17.7344,10.1562 17.0365,9.91667 16.5156,9.4375 C15.9948,8.95833 15.7344,8.14323 15.7344,6.99219 C15.7344,5.84115 15.9948,5.02604 16.5156,4.54688 C17.0365,4.07812 17.7344,3.84375 18.6094,3.84375 C18.901,3.84375 19.2083,3.88542 19.5312,3.96875 C19.8542,4.04167 20.125,4.14583 20.3438,4.28125 M25.8594,5.01562 C25.5052,4.52604 25.0208,4.28125 24.4062,4.28125 C23.7917,4.28125 23.3073,4.52604 22.9531,5.01562 C22.599,5.49479 22.4219,6.15104 22.4219,6.98438 C22.4219,7.83854 22.599,8.51042 22.9531,9 C23.3073,9.48958 23.7917,9.73438 24.4062,9.73438 C25.0208,9.73438 25.5052,9.48958 25.8594,9 C26.2135,8.5 26.3906,7.82812 26.3906,6.98438 C26.3906,6.16146 26.2135,5.50521 25.8594,5.01562 M24.4062,3.84375 C25.1667,3.84375 25.7708,4.13021 26.2188,4.70312 C26.6667,5.27604 26.8906,6.03646 26.8906,6.98438 C26.8906,7.97396 26.6667,8.75521 26.2188,9.32812 C25.7708,9.90104 25.1667,10.1875 24.4062,10.1875 C23.625,10.1875 23.0104,9.90104 22.5625,9.32812 C22.125,8.75521 21.9062,7.97396 21.9062,6.98438 C21.9062,6.02604 22.1302,5.26302 22.5781,4.69531 C23.026,4.1276 23.6354,3.84375 24.4062,3.84375 M32.2656,4.40625 C32.1823,4.36458 32.0729,4.33333 31.9375,4.3125 C31.8125,4.29167 31.6615,4.28125 31.4844,4.28125 C30.8698,4.28125 30.3646,4.50521 29.9688,4.95312 C29.6458,5.31771 29.4844,5.94271 29.4844,6.82812 L29.4844,10 L29,10 L29,3.98438 L29.4844,3.98438 L29.4844,5.10938 C29.651,4.78646 29.8802,4.51562 30.1719,4.29688 C30.5677,3.99479 31.0365,3.84375 31.5781,3.84375 C31.724,3.84375 31.849,3.84896 31.9531,3.85938 C32.0573,3.85938 32.1615,3.86979 32.2656,3.89062 L32.2656,4.40625 M37.5156,5.35938 L37.5156,1.64062 L37.9844,1.64062 L37.9844,10 L37.5156,10 L37.5156,8.64062 C37.2865,9.16146 37.0365,9.51562 36.7656,9.70312 C36.3698,10.0052 35.9896,10.1562 35.625,10.1562 C34.9167,10.1562 34.3255,9.86719 33.8516,9.28906 C33.3776,8.71094 33.1406,7.94792 33.1406,7 C33.1406,6.05208 33.3776,5.28906 33.8516,4.71094 C34.3255,4.13281 34.9167,3.84375 35.625,3.84375 C35.9896,3.84375 36.3698,3.98958 36.7656,4.28125 C37.0365,4.47917 37.2865,4.83854 37.5156,5.35938 M34.2812,4.90625 C33.8646,5.32292 33.6562,6.02083 33.6562,7 C33.6562,7.97917 33.8646,8.67708 34.2812,9.09375 C34.6979,9.51042 35.1354,9.71875 35.5938,9.71875 C36.0417,9.71875 36.474,9.51042 36.8906,9.09375 C37.2969,8.67708 37.5,7.97917 37.5,7 C37.5,6.02083 37.2969,5.32292 36.8906,4.90625 C36.474,4.48958 36.0417,4.28125 35.5938,4.28125 C35.1354,4.28125 34.6979,4.48958 34.2812,4.90625 M44.8438,12.1719 L44.8438,12.5938 L39.125,12.5938 L39.125,12.1719 L44.8438,12.1719 M46.375,9.5625 L48.1406,9.5625 L48.1406,2.46875 L45.9375,3.35938 L45.9375,2.85938 L48.125,1.98438 L48.6719,1.98438 L48.6719,9.5625 L50.4531,9.5625 L50.4531,10 L46.375,10 L46.375,9.5625 M53.125,1.98438 L56.9219,1.98438 L56.9219,2.42188 L53.6562,2.42188 L53.6562,5.10938 C53.8229,5.04688 53.9844,5 54.1406,4.96875 C54.2969,4.9375 54.526,4.92188 54.8281,4.92188 C55.651,4.92188 56.3021,5.15104 56.7812,5.60938 C57.2604,6.05729 57.5,6.66146 57.5,7.42188 C57.5,8.28646 57.25,8.95833 56.75,9.4375 C56.2604,9.91667 55.5677,10.1562 54.6719,10.1562 C54.3802,10.1562 54.0781,10.1302 53.7656,10.0781 C53.4531,10.026 53.1302,9.95312 52.7969,9.85938 L52.7969,9.3125 C53.0781,9.4375 53.3698,9.53646 53.6719,9.60938 C53.974,9.67188 54.2917,9.70312 54.625,9.70312 C55.3333,9.70312 55.901,9.5 56.3281,9.09375 C56.7552,8.6875 56.9688,8.13021 56.9688,7.42188 C56.9688,6.78646 56.7604,6.28646 56.3438,5.92188 C55.9271,5.54688 55.3646,5.35938 54.6562,5.35938 C54.5104,5.35938 54.2917,5.40104 54,5.48438 C53.7188,5.55729 53.4271,5.67708 53.125,5.84375 L53.125,1.98438 M60.0312,9.5625 L64.5938,9.5625 L64.5938,10 L59.4688,10 L59.4688,9.4375 L61.4688,7.35938 C61.9583,6.85938 62.4062,6.39583 62.8125,5.96875 C63.1771,5.57292 63.4219,5.26562 63.5469,5.04688 C63.6719,4.82812 63.7344,4.53646 63.7344,4.17188 C63.7344,3.55729 63.5469,3.0625 63.1719,2.6875 C62.901,2.41667 62.4583,2.28125 61.8438,2.28125 C61.4792,2.28125 61.0677,2.38542 60.6094,2.59375 C60.401,2.6875 60.0521,2.89062 59.5625,3.20312 L59.5625,2.64062 C59.7708,2.49479 60.0729,2.32812 60.4688,2.14062 C60.9271,1.94271 61.3802,1.83854 61.8281,1.82812 C62.5156,1.82812 63.0938,2.01042 63.5625,2.375 C64.0208,2.72917 64.25,3.3125 64.25,4.125 C64.25,4.45833 64.1875,4.77083 64.0625,5.0625 C63.9167,5.40625 63.6927,5.75521 63.3906,6.10938 C63.2969,6.21354 63.0104,6.51042 62.5312,7 L60.0312,9.5625 M70.1094,2.28125 L66.7812,7.4375 L70.1094,7.4375 L70.1094,2.28125 M69.6875,1.98438 L70.6562,1.98438 L70.6562,7.4375 L71.8125,7.4375 L71.8125,7.875 L70.6562,7.875 L70.6562,10 L70.1094,10 L70.1094,7.875 L66.2188,7.875 L66.2188,7.3125 L69.6875,1.98438 M74.3125,9.5625 L76.0781,9.5625 L76.0781,2.46875 L73.875,3.35938 L73.875,2.85938 L76.0625,1.98438 L76.6094,1.98438 L76.6094,9.5625 L78.3906,9.5625 L78.3906,10 L74.3125,10 L74.3125,9.5625 M81.1406,9.82812 L81.1406,9.26562 C81.3906,9.41146 81.6406,9.52604 81.8906,9.60938 C82.1406,9.68229 82.3906,9.71875 82.6406,9.71875 C83.7031,9.71875 84.4479,9.19792 84.875,8.15625 C85.0729,7.67708 85.1615,6.86979 85.1406,5.73438 C84.9635,6.13021 84.7344,6.4375 84.4531,6.65625 C84.0885,6.94792 83.6302,7.09375 83.0781,7.09375 C82.401,7.09375 81.8385,6.85417 81.3906,6.375 C80.9427,5.90625 80.7188,5.30208 80.7188,4.5625 C80.7188,3.73958 80.9375,3.07812 81.375,2.57812 C81.8229,2.07812 82.3958,1.82812 83.0938,1.82812 C83.9375,1.82812 84.5833,2.1875 85.0312,2.90625 C85.4792,3.61458 85.7031,4.64583 85.7031,6 C85.7031,7.4375 85.4271,8.48958 84.875,9.15625 C84.3333,9.82292 83.599,10.1562 82.6719,10.1562 C82.4219,10.1562 82.1719,10.1302 81.9219,10.0781 C81.6719,10.026 81.4115,9.94271 81.1406,9.82812 M81.7812,6.05469 C82.1146,6.44531 82.5651,6.64062 83.1328,6.64062 C83.7005,6.64062 84.151,6.44531 84.4844,6.05469 C84.8177,5.66406 84.9844,5.13021 84.9844,4.45312 C84.9844,3.77604 84.8177,3.24219 84.4844,2.85156 C84.151,2.46094 83.7005,2.26562 83.1328,2.26562 C82.5651,2.26562 82.1146,2.46094 81.7812,2.85156 C81.4479,3.24219 81.2812,3.77604 81.2812,4.45312 C81.2812,5.13021 81.4479,5.66406 81.7812,6.05469 M87.9688,9.5625 L92.5312,9.5625 L92.5312,10 L87.4062,10 L87.4062,9.4375 L89.4062,7.35938 C89.8958,6.85938 90.3438,6.39583 90.75,5.96875 C91.1146,5.57292 91.3594,5.26562 91.4844,5.04688 C91.6094,4.82812 91.6719,4.53646 91.6719,4.17188 C91.6719,3.55729 91.4844,3.0625 91.1094,2.6875 C90.8385,2.41667 90.3958,2.28125 89.7812,2.28125 C89.4167,2.28125 89.0052,2.38542 88.5469,2.59375 C88.3385,2.6875 87.9896,2.89062 87.5,3.20312 L87.5,2.64062 C87.7083,2.49479 88.0104,2.32812 88.4062,2.14062 C88.8646,1.94271 89.3177,1.83854 89.7656,1.82812 C90.4531,1.82812 91.0312,2.01042 91.5,2.375 C91.9583,2.72917 92.1875,3.3125 92.1875,4.125 C92.1875,4.45833 92.125,4.77083 92,5.0625 C91.8542,5.40625 91.6302,5.75521 91.3281,6.10938 C91.2344,6.21354 90.9479,6.51042 90.4688,7 L87.9688,9.5625 M94.5312,1.98438 L99.4062,1.98438 L99.4062,2.4375 L96.5,10 L95.9219,10 L98.8438,2.42188 L94.5312,2.42188 L94.5312,1.98438 M102.094,9.82812 L102.094,9.26562 C102.344,9.41146 102.594,9.52604 102.844,9.60938 C103.094,9.68229 103.344,9.71875 103.594,9.71875 C104.656,9.71875 105.401,9.19792 105.828,8.15625 C106.026,7.67708 106.115,6.86979 106.094,5.73438 C105.917,6.13021 105.688,6.4375 105.406,6.65625 C105.042,6.94792 104.583,7.09375 104.031,7.09375 C103.354,7.09375 102.792,6.85417 102.344,6.375 C101.896,5.90625 101.672,5.30208 101.672,4.5625 C101.672,3.73958 101.891,3.07812 102.328,2.57812 C102.776,2.07812 103.349,1.82812 104.047,1.82812 C104.891,1.82812 105.536,2.1875 105.984,2.90625 C106.432,3.61458 106.656,4.64583 106.656,6 C106.656,7.4375 106.38,8.48958 105.828,9.15625 C105.286,9.82292 104.552,10.1562 103.625,10.1562 C103.375,10.1562 103.125,10.1302 102.875,10.0781 C102.625,10.026 102.365,9.94271 102.094,9.82812 M102.734,6.05469 C103.068,6.44531 103.518,6.64062 104.086,6.64062 C104.654,6.64062 105.104,6.44531 105.438,6.05469 C105.771,5.66406 105.938,5.13021 105.938,4.45312 C105.938,3.77604 105.771,3.24219 105.438,2.85156 C105.104,2.46094 104.654,2.26562 104.086,2.26562 C103.518,2.26562 103.068,2.46094 102.734,2.85156 C102.401,3.24219 102.234,3.77604 102.234,4.45312 C102.234,5.13021 102.401,5.66406 102.734,6.05469 M109.234,9.5625 L111,9.5625 L111,2.46875 L108.797,3.35938 L108.797,2.85938 L110.984,1.98438 L111.531,1.98438 L111.531,9.5625 L113.312,9.5625 L113.312,10 L109.234,10 L109.234,9.5625 M118.047,2.28125 C117.391,2.28125 116.901,2.59896 116.578,3.23438 C116.266,3.86979 116.109,4.78906 116.109,5.99219 C116.109,7.19531 116.266,8.11979 116.578,8.76562 C116.901,9.40104 117.391,9.71875 118.047,9.71875 C118.724,9.71875 119.219,9.40104 119.531,8.76562 C119.854,8.11979 120.016,7.19531 120.016,5.99219 C120.016,4.78906 119.854,3.86979 119.531,3.23438 C119.219,2.59896 118.724,2.28125 118.047,2.28125 M118.047,1.82812 C118.818,1.82812 119.427,2.14583 119.875,2.78125 C120.333,3.41667 120.562,4.48958 120.562,6 C120.562,7.51042 120.333,8.58333 119.875,9.21875 C119.427,9.84375 118.818,10.1562 118.047,10.1562 C117.297,10.1562 116.693,9.84375 116.234,9.21875 C115.786,8.58333 115.562,7.51042 115.562,6 C115.562,4.48958 115.786,3.41667 116.234,2.78125 C116.693,2.14583 117.297,1.82812 118.047,1.82812 M126.547,5.92969 C126.214,5.53906 125.763,5.34375 125.195,5.34375 C124.628,5.34375 124.177,5.53906 123.844,5.92969 C123.51,6.32031 123.344,6.85417 123.344,7.53125 C123.344,8.20833 123.51,8.74219 123.844,9.13281 C124.177,9.52344 124.628,9.71875 125.195,9.71875 C125.763,9.71875 126.214,9.52344 126.547,9.13281 C126.88,8.74219 127.047,8.20833 127.047,7.53125 C127.047,6.85417 126.88,6.32031 126.547,5.92969 M127.203,2.15625 L127.203,2.73438 C126.953,2.57812 126.698,2.46354 126.438,2.39062 C126.188,2.30729 125.938,2.26562 125.688,2.26562 C124.625,2.26562 123.88,2.79167 123.453,3.84375 C123.255,4.3125 123.167,5.11979 123.188,6.26562 C123.365,5.86979 123.594,5.5625 123.875,5.34375 C124.24,5.05208 124.703,4.90625 125.266,4.90625 C125.932,4.90625 126.49,5.14062 126.938,5.60938 C127.385,6.08854 127.609,6.69271 127.609,7.42188 C127.609,8.24479 127.391,8.90625 126.953,9.40625 C126.516,9.90625 125.943,10.1562 125.234,10.1562 C124.391,10.1562 123.745,9.80208 123.297,9.09375 C122.849,8.375 122.625,7.34375 122.625,6 C122.625,4.5625 122.901,3.50521 123.453,2.82812 C123.995,2.16146 124.729,1.82812 125.656,1.82812 C125.906,1.82812 126.156,1.85938 126.406,1.92188 C126.656,1.97396 126.922,2.05208 127.203,2.15625 M132.047,6 C131.443,6 130.969,6.16667 130.625,6.5 C130.292,6.83333 130.125,7.28906 130.125,7.86719 C130.125,8.44531 130.292,8.90104 130.625,9.23438 C130.969,9.56771 131.44,9.73438 132.039,9.73438 C132.638,9.73438 133.109,9.56771 133.453,9.23438 C133.807,8.90104 133.984,8.44792 133.984,7.875 C133.984,7.29167 133.812,6.83333 133.469,6.5 C133.125,6.16667 132.651,6 132.047,6 M130.953,5.73438 C130.609,5.59896 130.328,5.38021 130.109,5.07812 C129.87,4.76562 129.75,4.38021 129.75,3.92188 C129.75,3.27604 129.956,2.76562 130.367,2.39062 C130.779,2.01562 131.339,1.82812 132.047,1.82812 C132.755,1.82812 133.312,2.01562 133.719,2.39062 C134.125,2.76562 134.328,3.27604 134.328,3.92188 C134.328,4.39062 134.214,4.77604 133.984,5.07812 C133.745,5.39062 133.464,5.60938 133.141,5.73438 C133.536,5.85938 133.859,6.09375 134.109,6.4375 C134.37,6.79167 134.5,7.22917 134.5,7.75 C134.5,8.52083 134.292,9.11458 133.875,9.53125 C133.448,9.94792 132.839,10.1562 132.047,10.1562 C131.255,10.1562 130.646,9.94792 130.219,9.53125 C129.792,9.11458 129.578,8.52083 129.578,7.75 C129.578,7.22917 129.708,6.79167 129.969,6.4375 C130.26,6.08333 130.589,5.84896 130.953,5.73438 M130.758,2.71094 C130.451,2.9974 130.297,3.40104 130.297,3.92188 C130.297,4.44271 130.451,4.84896 130.758,5.14062 C131.065,5.43229 131.495,5.57812 132.047,5.57812 C132.589,5.57812 133.016,5.43229 133.328,5.14062 C133.641,4.84896 133.797,4.44271 133.797,3.92188 C133.797,3.40104 133.641,3 133.328,2.71875 C133.016,2.42708 132.589,2.28125 132.047,2.28125 C131.495,2.28125 131.065,2.42448 130.758,2.71094 M136.938,1.98438 L140.734,1.98438 L140.734,2.42188 L137.469,2.42188 L137.469,5.10938 C137.635,5.04688 137.797,5 137.953,4.96875 C138.109,4.9375 138.339,4.92188 138.641,4.92188 C139.464,4.92188 140.115,5.15104 140.594,5.60938 C141.073,6.05729 141.312,6.66146 141.312,7.42188 C141.312,8.28646 141.062,8.95833 140.562,9.4375 C140.073,9.91667 139.38,10.1562 138.484,10.1562 C138.193,10.1562 137.891,10.1302 137.578,10.0781 C137.266,10.026 136.943,9.95312 136.609,9.85938 L136.609,9.3125 C136.891,9.4375 137.182,9.53646 137.484,9.60938 C137.786,9.67188 138.104,9.70312 138.438,9.70312 C139.146,9.70312 139.714,9.5 140.141,9.09375 C140.568,8.6875 140.781,8.13021 140.781,7.42188 C140.781,6.78646 140.573,6.28646 140.156,5.92188 C139.74,5.54688 139.177,5.35938 138.469,5.35938 C138.323,5.35938 138.104,5.40104 137.812,5.48438 C137.531,5.55729 137.24,5.67708 136.938,5.84375 L136.938,1.98438 M147.5,5.92969 C147.167,5.53906 146.716,5.34375 146.148,5.34375 C145.581,5.34375 145.13,5.53906 144.797,5.92969 C144.464,6.32031 144.297,6.85417 144.297,7.53125 C144.297,8.20833 144.464,8.74219 144.797,9.13281 C145.13,9.52344 145.581,9.71875 146.148,9.71875 C146.716,9.71875 147.167,9.52344 147.5,9.13281 C147.833,8.74219 148,8.20833 148,7.53125 C148,6.85417 147.833,6.32031 147.5,5.92969 M148.156,2.15625 L148.156,2.73438 C147.906,2.57812 147.651,2.46354 147.391,2.39062 C147.141,2.30729 146.891,2.26562 146.641,2.26562 C145.578,2.26562 144.833,2.79167 144.406,3.84375 C144.208,4.3125 144.12,5.11979 144.141,6.26562 C144.318,5.86979 144.547,5.5625 144.828,5.34375 C145.193,5.05208 145.656,4.90625 146.219,4.90625 C146.885,4.90625 147.443,5.14062 147.891,5.60938 C148.339,6.08854 148.562,6.69271 148.562,7.42188 C148.562,8.24479 148.344,8.90625 147.906,9.40625 C147.469,9.90625 146.896,10.1562 146.188,10.1562 C145.344,10.1562 144.698,9.80208 144.25,9.09375 C143.802,8.375 143.578,7.34375 143.578,6 C143.578,4.5625 143.854,3.50521 144.406,2.82812 C144.948,2.16146 145.682,1.82812 146.609,1.82812 C146.859,1.82812 147.109,1.85938 147.359,1.92188 C147.609,1.97396 147.875,2.05208 148.156,2.15625 M150.906,1.98438 L154.703,1.98438 L154.703,2.42188 L151.438,2.42188 L151.438,5.10938 C151.604,5.04688 151.766,5 151.922,4.96875 C152.078,4.9375 152.307,4.92188 152.609,4.92188 C153.432,4.92188 154.083,5.15104 154.562,5.60938 C155.042,6.05729 155.281,6.66146 155.281,7.42188 C155.281,8.28646 155.031,8.95833 154.531,9.4375 C154.042,9.91667 153.349,10.1562 152.453,10.1562 C152.161,10.1562 151.859,10.1302 151.547,10.0781 C151.234,10.026 150.911,9.95312 150.578,9.85938 L150.578,9.3125 C150.859,9.4375 151.151,9.53646 151.453,9.60938 C151.755,9.67188 152.073,9.70312 152.406,9.70312 C153.115,9.70312 153.682,9.5 154.109,9.09375 C154.536,8.6875 154.75,8.13021 154.75,7.42188 C154.75,6.78646 154.542,6.28646 154.125,5.92188 C153.708,5.54688 153.146,5.35938 152.438,5.35938 C152.292,5.35938 152.073,5.40104 151.781,5.48438 C151.5,5.55729 151.208,5.67708 150.906,5.84375 L150.906,1.98438 M158.125,9.5625 L159.891,9.5625 L159.891,2.46875 L157.688,3.35938 L157.688,2.85938 L159.875,1.98438 L160.422,1.98438 L160.422,9.5625 L162.203,9.5625 L162.203,10 L158.125,10 L158.125,9.5625 M168.453,5.92969 C168.12,5.53906 167.669,5.34375 167.102,5.34375 C166.534,5.34375 166.083,5.53906 165.75,5.92969 C165.417,6.32031 165.25,6.85417 165.25,7.53125 C165.25,8.20833 165.417,8.74219 165.75,9.13281 C166.083,9.52344 166.534,9.71875 167.102,9.71875 C167.669,9.71875 168.12,9.52344 168.453,9.13281 C168.786,8.74219 168.953,8.20833 168.953,7.53125 C168.953,6.85417 168.786,6.32031 168.453,5.92969 M169.109,2.15625 L169.109,2.73438 C168.859,2.57812 168.604,2.46354 168.344,2.39062 C168.094,2.30729 167.844,2.26562 167.594,2.26562 C166.531,2.26562 165.786,2.79167 165.359,3.84375 C165.161,4.3125 165.073,5.11979 165.094,6.26562 C165.271,5.86979 165.5,5.5625 165.781,5.34375 C166.146,5.05208 166.609,4.90625 167.172,4.90625 C167.839,4.90625 168.396,5.14062 168.844,5.60938 C169.292,6.08854 169.516,6.69271 169.516,7.42188 C169.516,8.24479 169.297,8.90625 168.859,9.40625 C168.422,9.90625 167.849,10.1562 167.141,10.1562 C166.297,10.1562 165.651,9.80208 165.203,9.09375 C164.755,8.375 164.531,7.34375 164.531,6 C164.531,4.5625 164.807,3.50521 165.359,2.82812 C165.901,2.16146 166.635,1.82812 167.562,1.82812 C167.812,1.82812 168.062,1.85938 168.312,1.92188 C168.562,1.97396 168.828,2.05208 169.109,2.15625 M171.938,9.82812 L171.938,9.26562 C172.188,9.41146 172.438,9.52604 172.688,9.60938 C172.938,9.68229 173.188,9.71875 173.438,9.71875 C174.5,9.71875 175.245,9.19792 175.672,8.15625 C175.87,7.67708 175.958,6.86979 175.938,5.73438 C175.76,6.13021 175.531,6.4375 175.25,6.65625 C174.885,6.94792 174.427,7.09375 173.875,7.09375 C173.198,7.09375 172.635,6.85417 172.188,6.375 C171.74,5.90625 171.516,5.30208 171.516,4.5625 C171.516,3.73958 171.734,3.07812 172.172,2.57812 C172.62,2.07812 173.193,1.82812 173.891,1.82812 C174.734,1.82812 175.38,2.1875 175.828,2.90625 C176.276,3.61458 176.5,4.64583 176.5,6 C176.5,7.4375 176.224,8.48958 175.672,9.15625 C175.13,9.82292 174.396,10.1562 173.469,10.1562 C173.219,10.1562 172.969,10.1302 172.719,10.0781 C172.469,10.026 172.208,9.94271 171.938,9.82812 M172.578,6.05469 C172.911,6.44531 173.362,6.64062 173.93,6.64062 C174.497,6.64062 174.948,6.44531 175.281,6.05469 C175.615,5.66406 175.781,5.13021 175.781,4.45312 C175.781,3.77604 175.615,3.24219 175.281,2.85156 C174.948,2.46094 174.497,2.26562 173.93,2.26562 C173.362,2.26562 172.911,2.46094 172.578,2.85156 C172.245,3.24219 172.078,3.77604 172.078,4.45312 C172.078,5.13021 172.245,5.66406 172.578,6.05469 "/>
</g>

<g fill="none" stroke="#000000" stroke-opacity="1" stroke-width="1" stroke-linecap="square" stroke-linejoin="bevel" transform="matrix(1.99934,0,0,1.99934,608.722,22.9924)"
font-family="sans" font-size="11" font-weight="100" font-style="normal" 
>
</g>

<g fill="none" stroke="#000000" stroke-opacity="1" stroke-width="1" stroke-linecap="square" stroke-linejoin="bevel" transform="matrix(1.99934,0,0,1.99934,608.722,22.9924)"
font-family="Sans Serif" font-size="9" font-weight="400" font-style="normal" 
>
</g>

<g fill="none" stroke="#000000" stroke-opacity="1" stroke-width="1" stroke-linecap="square" stroke-linejoin="bevel" transform="matrix(1.99934,0,0,1.99934,0.000799735,71.9761)"
font-family="Sans Serif" font-size="9" font-weight="400" font-style="normal" 
>
</g>

<g fill="none" stroke="#000000" stroke-opacity="1" stroke-width="1" stroke-linecap="square" stroke-linejoin="bevel" transform="matrix(1.99934,0,0,1.99934,0.000799735,71.9761)"
font-family="Sans Serif" font-size="9" font-weight="400" font-style="normal" 
>
</g>

<g fill="none" stroke="#000000" stroke-opacity="1" stroke-width="1" stroke-linecap="square" stroke-linejoin="bevel" transform="matrix(1.99934,0,0,1.99934,0.000799735,71.9761)"
font-family="Sans Serif" font-size="9" font-weight="400" font-style="normal" 
>
</g>

<g fill="none" stroke="#000000" stroke-opacity="1" stroke-width="1" stroke-linecap="square" stroke-linejoin="round" transform="matrix(1.99934,0,0,1.99934,0.000799735,71.9761)"
font-family="Sans Serif" font-size="9" font-weight="400" font-style="normal" 
>
<ellipse cx="70.844" cy="-18" rx="70.3444" ry="17.5"/>
</g>

<g fill="none" stroke="#000000" stroke-opacity="1" stroke-width="1" stroke-linecap="square" stroke-linejoin="bevel" transform="matrix(1.99934,0,0,1.99934,0.000799735,71.9761)"
font-family="Sans Serif" font-size="9" font-weight="400" font-style="normal" 
>
</g>

<g fill="none" stroke="#000000" stroke-opacity="1" stroke-width="1" stroke-linecap="square" stroke-linejoin="bevel" transform="matrix(1.99934,0,0,1.99934,48.2822,22.9924)"
font-family="Sans Serif" font-size="9" font-weight="400" font-style="normal" 
>
</g>

<g fill="none" stroke="#000000" stroke-opacity="1" stroke-width="1" stroke-linecap="square" stroke-linejoin="bevel" transform="matrix(1.99934,0,0,1.99934,48.2822,22.9924)"
font-family="sans" font-size="11" font-weight="100" font-style="normal" 
>
</g>

<g fill="#000000" fill-opacity="1" stroke="#000000" stroke-opacity="1" stroke-width="1" stroke-linecap="square" stroke-linejoin="round" transform="matrix(1.99934,0,0,1.99934,48.2822,22.9924)"
font-family="sans" font-size="11" font-weight="100" font-style="normal" 
>
<path vector-effect="none" fill-rule="nonzero" d="M2.96875,1.98438 L3.53125,1.98438 L0.734375,11.0156 L0.171875,11.0156 L2.96875,1.98438 M8.35938,4.15625 L8.35938,4.70312 C8.00521,4.50521 7.78646,4.39583 7.70312,4.375 C7.45312,4.32292 7.14062,4.29167 6.76562,4.28125 C6.20312,4.28125 5.76042,4.39062 5.4375,4.60938 C5.1875,4.79688 5.0625,5.11458 5.0625,5.5625 C5.0625,5.875 5.18229,6.11458 5.42188,6.28125 C5.66146,6.46875 6.01042,6.61458 6.46875,6.71875 L6.8125,6.78125 C7.38542,6.90625 7.81771,7.08333 8.10938,7.3125 C8.45312,7.58333 8.63021,7.92708 8.64062,8.34375 C8.64062,8.90625 8.47396,9.34896 8.14062,9.67188 C7.78646,9.99479 7.20833,10.1562 6.40625,10.1562 C5.96875,10.1562 5.63542,10.125 5.40625,10.0625 C5.125,9.98958 4.83333,9.89583 4.53125,9.78125 L4.53125,9.15625 C4.96875,9.40625 5.25,9.55208 5.375,9.59375 C5.72917,9.6875 6.08333,9.73438 6.4375,9.73438 C7.01042,9.73438 7.4375,9.61458 7.71875,9.375 C8,9.125 8.14062,8.80729 8.14062,8.42188 C8.14062,8.08854 8.04688,7.84896 7.85938,7.70312 C7.58854,7.48438 7.16146,7.30729 6.57812,7.17188 L6.23438,7.09375 C5.72396,6.96875 5.33854,6.80208 5.07812,6.59375 C4.74479,6.32292 4.57812,5.99479 4.57812,5.60938 C4.57812,4.98438 4.77865,4.53385 5.17969,4.25781 C5.58073,3.98177 6.07292,3.84375 6.65625,3.84375 C7.15625,3.84375 7.5,3.86979 7.6875,3.92188 C7.91667,3.98438 8.14062,4.0625 8.35938,4.15625 M10.6562,3.98438 L11.1562,3.98438 L11.1562,10 L10.6562,10 L10.6562,3.98438 M10.6562,1.64062 L11.1562,1.64062 L11.1562,2.3125 L10.6562,2.3125 L10.6562,1.64062 M18.0469,5.29688 C18.2344,4.80729 18.526,4.44271 18.9219,4.20312 C19.3073,3.96354 19.7604,3.84375 20.2812,3.84375 C20.8021,3.84375 21.2188,4.02604 21.5312,4.39062 C21.8542,4.75521 22.0156,5.41667 22.0156,6.375 L22.0156,10 L21.5312,10 L21.5312,6.40625 C21.5312,5.57292 21.4167,5.01042 21.1875,4.71875 C20.9583,4.42708 20.651,4.28125 20.2656,4.28125 C19.7135,4.28125 19.2292,4.44792 18.8125,4.78125 C18.3438,5.15625 18.1094,5.76042 18.1094,6.59375 L18.1094,10 L17.625,10 L17.625,6.40625 C17.625,5.60417 17.513,5.04948 17.2891,4.74219 C17.0651,4.4349 16.7552,4.28125 16.3594,4.28125 C15.8073,4.28125 15.3229,4.45312 14.9062,4.79688 C14.4375,5.16146 14.2031,5.76042 14.2031,6.59375 L14.2031,10 L13.7188,10 L13.7188,3.98438 L14.2031,3.98438 L14.2031,5.10938 C14.3802,4.71354 14.6562,4.40104 15.0312,4.17188 C15.3958,3.95312 15.849,3.84375 16.3906,3.84375 C16.7448,3.84375 17.0833,3.95833 17.4062,4.1875 C17.6562,4.375 17.8698,4.74479 18.0469,5.29688 M24.3594,7.60938 L24.3594,3.98438 L24.8438,3.98438 L24.8438,7.57812 C24.8438,8.35938 24.9688,8.90885 25.2188,9.22656 C25.4688,9.54427 25.8385,9.70312 26.3281,9.70312 C26.901,9.70312 27.3906,9.53125 27.7969,9.1875 C28.2031,8.84375 28.4062,8.24479 28.4062,7.39062 L28.4062,3.98438 L28.8906,3.98438 L28.8906,10 L28.4062,10 L28.4062,8.875 C28.2292,9.23958 27.9948,9.51562 27.7031,9.70312 C27.2865,9.99479 26.8229,10.1406 26.3125,10.1406 C25.7188,10.1406 25.2448,9.9375 24.8906,9.53125 C24.5365,9.13542 24.3594,8.49479 24.3594,7.60938 M31.3906,1.64062 L31.875,1.64062 L31.875,10 L31.3906,10 L31.3906,1.64062 M36.8438,6.60938 C36.0417,6.60938 35.4661,6.75 35.1172,7.03125 C34.7682,7.3125 34.5938,7.72396 34.5938,8.26562 C34.5938,8.79688 34.7396,9.17448 35.0312,9.39844 C35.3229,9.6224 35.6667,9.73438 36.0625,9.73438 C36.8125,9.73438 37.3542,9.41667 37.6875,8.78125 C38.0208,8.13542 38.1875,7.53125 38.1875,6.96875 L38.1875,6.60938 L36.8438,6.60938 M38.6875,6.5625 L38.6875,10 L38.1875,10 L38.1875,8.35938 C37.9167,9.16146 37.5521,9.67188 37.0938,9.89062 C36.7396,10.0677 36.3802,10.1562 36.0156,10.1562 C35.4219,10.1562 34.9531,9.99479 34.6094,9.67188 C34.2656,9.34896 34.0938,8.8776 34.0938,8.25781 C34.0938,7.63802 34.3177,7.14062 34.7656,6.76562 C35.2135,6.39062 35.9427,6.20312 36.9531,6.20312 L38.1875,6.20312 L38.1875,6.10938 C38.1875,5.57812 38.0312,5.14062 37.7188,4.79688 C37.4271,4.45312 36.9323,4.28125 36.2344,4.28125 C35.8906,4.28125 35.5417,4.34375 35.1875,4.46875 C34.9583,4.55208 34.6562,4.71875 34.2812,4.96875 L34.2812,4.4375 C34.6042,4.23958 34.9062,4.09896 35.1875,4.01562 C35.5833,3.90104 35.9635,3.84375 36.3281,3.84375 C37.0469,3.84375 37.6354,4.05729 38.0938,4.48438 C38.4896,4.84896 38.6875,5.54167 38.6875,6.5625 M41.6875,2.28125 L41.6875,3.98438 L43.7188,3.98438 L43.7188,4.40625 L41.6875,4.40625 L41.6875,8.01562 C41.6875,8.47396 41.7448,8.79688 41.8594,8.98438 C42.1094,9.38021 42.4688,9.57812 42.9375,9.57812 L43.7188,9.57812 L43.7188,10 L42.9531,10 C42.4635,10 42.0469,9.85677 41.7031,9.57031 C41.3594,9.28385 41.1875,8.76562 41.1875,8.01562 L41.1875,4.40625 L40.4688,4.40625 L40.4688,3.98438 L41.1875,3.98438 L41.1875,2.28125 L41.6875,2.28125 M50.1719,6.75 L50.1719,7.0625 L45.6094,7.0625 C45.6094,8.02083 45.7969,8.69792 46.1719,9.09375 C46.5885,9.52083 47.2031,9.73438 48.0156,9.73438 C48.2344,9.73438 48.5208,9.6875 48.875,9.59375 C49.2292,9.5 49.5833,9.35938 49.9375,9.17188 L49.9375,9.6875 C49.5833,9.84375 49.2214,9.96094 48.8516,10.0391 C48.4818,10.1172 48.1875,10.1562 47.9688,10.1562 C47.0417,10.1562 46.3438,9.90625 45.875,9.40625 C45.3646,8.875 45.1094,8.09375 45.1094,7.0625 C45.1094,5.98958 45.3385,5.1875 45.7969,4.65625 C46.276,4.11458 46.9427,3.84375 47.7969,3.84375 C48.5781,3.84375 49.1719,4.10417 49.5781,4.625 C49.974,5.16667 50.1719,5.875 50.1719,6.75 M49.6719,6.64062 C49.6719,5.79688 49.4792,5.18229 49.0938,4.79688 C48.7812,4.45312 48.349,4.28125 47.7969,4.28125 C47.2031,4.28125 46.7031,4.45833 46.2969,4.8125 C45.9219,5.14583 45.6979,5.75521 45.625,6.64062 L49.6719,6.64062 M56.25,5.35938 L56.25,1.64062 L56.7188,1.64062 L56.7188,10 L56.25,10 L56.25,8.64062 C56.0208,9.16146 55.7708,9.51562 55.5,9.70312 C55.1042,10.0052 54.724,10.1562 54.3594,10.1562 C53.651,10.1562 53.0599,9.86719 52.5859,9.28906 C52.112,8.71094 51.875,7.94792 51.875,7 C51.875,6.05208 52.112,5.28906 52.5859,4.71094 C53.0599,4.13281 53.651,3.84375 54.3594,3.84375 C54.724,3.84375 55.1042,3.98958 55.5,4.28125 C55.7708,4.47917 56.0208,4.83854 56.25,5.35938 M53.0156,4.90625 C52.599,5.32292 52.3906,6.02083 52.3906,7 C52.3906,7.97917 52.599,8.67708 53.0156,9.09375 C53.4323,9.51042 53.8698,9.71875 54.3281,9.71875 C54.776,9.71875 55.2083,9.51042 55.625,9.09375 C56.0312,8.67708 56.2344,7.97917 56.2344,7 C56.2344,6.02083 56.0312,5.32292 55.625,4.90625 C55.2083,4.48958 54.776,4.28125 54.3281,4.28125 C53.8698,4.28125 53.4323,4.48958 53.0156,4.90625 M63.5781,12.1719 L63.5781,12.5938 L57.8594,12.5938 L57.8594,12.1719 L63.5781,12.1719 M65.2344,2.28125 L65.2344,3.98438 L67.2656,3.98438 L67.2656,4.40625 L65.2344,4.40625 L65.2344,8.01562 C65.2344,8.47396 65.2917,8.79688 65.4062,8.98438 C65.6562,9.38021 66.0156,9.57812 66.4844,9.57812 L67.2656,9.57812 L67.2656,10 L66.5,10 C66.0104,10 65.5938,9.85677 65.25,9.57031 C64.9062,9.28385 64.7344,8.76562 64.7344,8.01562 L64.7344,4.40625 L64.0156,4.40625 L64.0156,3.98438 L64.7344,3.98438 L64.7344,2.28125 L65.2344,2.28125 M68.9688,7.60938 L68.9688,3.98438 L69.4531,3.98438 L69.4531,7.57812 C69.4531,8.35938 69.5781,8.90885 69.8281,9.22656 C70.0781,9.54427 70.4479,9.70312 70.9375,9.70312 C71.5104,9.70312 72,9.53125 72.4062,9.1875 C72.8125,8.84375 73.0156,8.24479 73.0156,7.39062 L73.0156,3.98438 L73.5,3.98438 L73.5,10 L73.0156,10 L73.0156,8.875 C72.8385,9.23958 72.6042,9.51562 72.3125,9.70312 C71.8958,9.99479 71.4323,10.1406 70.9219,10.1406 C70.3281,10.1406 69.8542,9.9375 69.5,9.53125 C69.1458,9.13542 68.9688,8.49479 68.9688,7.60938 M79.2656,4.40625 C79.1823,4.36458 79.0729,4.33333 78.9375,4.3125 C78.8125,4.29167 78.6615,4.28125 78.4844,4.28125 C77.8698,4.28125 77.3646,4.50521 76.9688,4.95312 C76.6458,5.31771 76.4844,5.94271 76.4844,6.82812 L76.4844,10 L76,10 L76,3.98438 L76.4844,3.98438 L76.4844,5.10938 C76.651,4.78646 76.8802,4.51562 77.1719,4.29688 C77.5677,3.99479 78.0365,3.84375 78.5781,3.84375 C78.724,3.84375 78.849,3.84896 78.9531,3.85938 C79.0573,3.85938 79.1615,3.86979 79.2656,3.89062 L79.2656,4.40625 M81.0312,2.28125 L81.0312,3.98438 L83.0625,3.98438 L83.0625,4.40625 L81.0312,4.40625 L81.0312,8.01562 C81.0312,8.47396 81.0885,8.79688 81.2031,8.98438 C81.4531,9.38021 81.8125,9.57812 82.2812,9.57812 L83.0625,9.57812 L83.0625,10 L82.2969,10 C81.8073,10 81.3906,9.85677 81.0469,9.57031 C80.7031,9.28385 80.5312,8.76562 80.5312,8.01562 L80.5312,4.40625 L79.8125,4.40625 L79.8125,3.98438 L80.5312,3.98438 L80.5312,2.28125 L81.0312,2.28125 M84.8281,1.64062 L85.3125,1.64062 L85.3125,10 L84.8281,10 L84.8281,1.64062 M92.5625,6.75 L92.5625,7.0625 L88,7.0625 C88,8.02083 88.1875,8.69792 88.5625,9.09375 C88.9792,9.52083 89.5938,9.73438 90.4062,9.73438 C90.625,9.73438 90.9115,9.6875 91.2656,9.59375 C91.6198,9.5 91.974,9.35938 92.3281,9.17188 L92.3281,9.6875 C91.974,9.84375 91.612,9.96094 91.2422,10.0391 C90.8724,10.1172 90.5781,10.1562 90.3594,10.1562 C89.4323,10.1562 88.7344,9.90625 88.2656,9.40625 C87.7552,8.875 87.5,8.09375 87.5,7.0625 C87.5,5.98958 87.7292,5.1875 88.1875,4.65625 C88.6667,4.11458 89.3333,3.84375 90.1875,3.84375 C90.9688,3.84375 91.5625,4.10417 91.9688,4.625 C92.3646,5.16667 92.5625,5.875 92.5625,6.75 M92.0625,6.64062 C92.0625,5.79688 91.8698,5.18229 91.4844,4.79688 C91.1719,4.45312 90.7396,4.28125 90.1875,4.28125 C89.5938,4.28125 89.0938,4.45833 88.6875,4.8125 C88.3125,5.14583 88.0885,5.75521 88.0156,6.64062 L92.0625,6.64062"/>
</g>

<g fill="none" stroke="#000000" stroke-opacity="1" stroke-width="1" stroke-linecap="square" stroke-linejoin="bevel" transform="matrix(1.99934,0,0,1.99934,48.2822,22.9924)"
font-family="sans" font-size="11" font-weight="100" font-style="normal" 
>
</g>

<g fill="none" stroke="#000000" stroke-opacity="1" stroke-width="1" stroke-linecap="square" stroke-linejoin="bevel" transform="matrix(1.99934,0,0,1.99934,48.2822,22.9924)"
font-family="Sans Serif" font-size="9" font-weight="400" font-style="normal" 
>
</g>

<g fill="none" stroke="#000000" stroke-opacity="1" stroke-width="1" stroke-linecap="square" stroke-linejoin="bevel" transform="matrix(1.99934,0,0,1.99934,0.000799735,71.9761)"
font-family="Sans Serif" font-size="9" font-weight="400" font-style="normal" 
>
</g>

<g fill="none" stroke="#000000" stroke-opacity="1" stroke-width="1" stroke-linecap="square" stroke-linejoin="bevel" transform="matrix(1.99934,0,0,1.99934,0.000799735,71.9761)"
font-family="Sans Serif" font-size="9" font-weight="400" font-style="normal" 
>
</g>

<g fill="none" stroke="#000000" stroke-opacity="1" stroke-width="1" stroke-linecap="square" stroke-linejoin="bevel" transform="matrix(1.99934,0,0,1.99934,0.000799735,71.9761)"
font-family="Sans Serif" font-size="9" font-weight="400" font-style="normal" 
>
</g>

<g fill="none" stroke="#000000" stroke-opacity="1" stroke-width="1" stroke-linecap="square" stroke-linejoin="round" transform="matrix(1.99934,0,0,1.99934,0.000799735,71.9761)"
font-family="Sans Serif" font-size="9" font-weight="400" font-style="normal" 
>
<path vector-effect="none" fill-rule="evenodd" d="M141.75,-18 C176.2,-18 218.92,-18 259.27,-18 "/>
</g>

<g fill="none" stroke="#000000" stroke-opacity="1" stroke-width="1" stroke-linecap="square" stroke-linejoin="bevel" transform="matrix(1.99934,0,0,1.99934,0.000799735,71.9761)"
font-family="Sans Serif" font-size="9" font-weight="400" font-style="normal" 
>
</g>

<g fill="none" stroke="#000000" stroke-opacity="1" stroke-width="1" stroke-linecap="square" stroke-linejoin="bevel" transform="matrix(1.99934,0,0,1.99934,298.016,7.99735)"
font-family="Sans Serif" font-size="9" font-weight="400" font-style="normal" 
>
</g>

<g fill="none" stroke="#000000" stroke-opacity="1" stroke-width="1" stroke-linecap="square" stroke-linejoin="bevel" transform="matrix(1.99934,0,0,1.99934,298.016,7.99735)"
font-family="sans" font-size="11" font-weight="100" font-style="normal" 
>
</g>

<g fill="#000000" fill-opacity="1" stroke="#000000" stroke-opacity="1" stroke-width="1" stroke-linecap="square" stroke-linejoin="round" transform="matrix(1.99934,0,0,1.99934,298.016,7.99735)"
font-family="sans" font-size="11" font-weight="100" font-style="normal" 
>
<path vector-effect="none" fill-rule="nonzero" d="M2.96875,1.98438 L3.53125,1.98438 L0.734375,11.0156 L0.171875,11.0156 L2.96875,1.98438 M5.46875,2.28125 L5.46875,3.98438 L7.5,3.98438 L7.5,4.40625 L5.46875,4.40625 L5.46875,8.01562 C5.46875,8.47396 5.52604,8.79688 5.64062,8.98438 C5.89062,9.38021 6.25,9.57812 6.71875,9.57812 L7.5,9.57812 L7.5,10 L6.73438,10 C6.24479,10 5.82812,9.85677 5.48438,9.57031 C5.14062,9.28385 4.96875,8.76562 4.96875,8.01562 L4.96875,4.40625 L4.25,4.40625 L4.25,3.98438 L4.96875,3.98438 L4.96875,2.28125 L5.46875,2.28125 M9.20312,7.60938 L9.20312,3.98438 L9.6875,3.98438 L9.6875,7.57812 C9.6875,8.35938 9.8125,8.90885 10.0625,9.22656 C10.3125,9.54427 10.6823,9.70312 11.1719,9.70312 C11.7448,9.70312 12.2344,9.53125 12.6406,9.1875 C13.0469,8.84375 13.25,8.24479 13.25,7.39062 L13.25,3.98438 L13.7344,3.98438 L13.7344,10 L13.25,10 L13.25,8.875 C13.0729,9.23958 12.8385,9.51562 12.5469,9.70312 C12.1302,9.99479 11.6667,10.1406 11.1562,10.1406 C10.5625,10.1406 10.0885,9.9375 9.73438,9.53125 C9.38021,9.13542 9.20312,8.49479 9.20312,7.60938 M19.5,4.40625 C19.4167,4.36458 19.3073,4.33333 19.1719,4.3125 C19.0469,4.29167 18.8958,4.28125 18.7188,4.28125 C18.1042,4.28125 17.599,4.50521 17.2031,4.95312 C16.8802,5.31771 16.7188,5.94271 16.7188,6.82812 L16.7188,10 L16.2344,10 L16.2344,3.98438 L16.7188,3.98438 L16.7188,5.10938 C16.8854,4.78646 17.1146,4.51562 17.4062,4.29688 C17.8021,3.99479 18.2708,3.84375 18.8125,3.84375 C18.9583,3.84375 19.0833,3.84896 19.1875,3.85938 C19.2917,3.85938 19.3958,3.86979 19.5,3.89062 L19.5,4.40625 M21.2656,2.28125 L21.2656,3.98438 L23.2969,3.98438 L23.2969,4.40625 L21.2656,4.40625 L21.2656,8.01562 C21.2656,8.47396 21.3229,8.79688 21.4375,8.98438 C21.6875,9.38021 22.0469,9.57812 22.5156,9.57812 L23.2969,9.57812 L23.2969,10 L22.5312,10 C22.0417,10 21.625,9.85677 21.2812,9.57031 C20.9375,9.28385 20.7656,8.76562 20.7656,8.01562 L20.7656,4.40625 L20.0469,4.40625 L20.0469,3.98438 L20.7656,3.98438 L20.7656,2.28125 L21.2656,2.28125 M25.0625,1.64062 L25.5469,1.64062 L25.5469,10 L25.0625,10 L25.0625,1.64062 M32.7969,6.75 L32.7969,7.0625 L28.2344,7.0625 C28.2344,8.02083 28.4219,8.69792 28.7969,9.09375 C29.2135,9.52083 29.8281,9.73438 30.6406,9.73438 C30.8594,9.73438 31.1458,9.6875 31.5,9.59375 C31.8542,9.5 32.2083,9.35938 32.5625,9.17188 L32.5625,9.6875 C32.2083,9.84375 31.8464,9.96094 31.4766,10.0391 C31.1068,10.1172 30.8125,10.1562 30.5938,10.1562 C29.6667,10.1562 28.9688,9.90625 28.5,9.40625 C27.9896,8.875 27.7344,8.09375 27.7344,7.0625 C27.7344,5.98958 27.9635,5.1875 28.4219,4.65625 C28.901,4.11458 29.5677,3.84375 30.4219,3.84375 C31.2031,3.84375 31.7969,4.10417 32.2031,4.625 C32.599,5.16667 32.7969,5.875 32.7969,6.75 M32.2969,6.64062 C32.2969,5.79688 32.1042,5.18229 31.7188,4.79688 C31.4062,4.45312 30.974,4.28125 30.4219,4.28125 C29.8281,4.28125 29.3281,4.45833 28.9219,4.8125 C28.5469,5.14583 28.3229,5.75521 28.25,6.64062 L32.2969,6.64062 M35.2656,9.5625 L37.0312,9.5625 L37.0312,2.46875 L34.8281,3.35938 L34.8281,2.85938 L37.0156,1.98438 L37.5625,1.98438 L37.5625,9.5625 L39.3438,9.5625 L39.3438,10 L35.2656,10 L35.2656,9.5625 M43.5781,1.98438 L44.1406,1.98438 L41.3438,11.0156 L40.7812,11.0156 L43.5781,1.98438 M49.6719,4.28125 L49.6719,4.79688 C49.3802,4.61979 49.1354,4.5 48.9375,4.4375 C48.6042,4.33333 48.2865,4.28125 47.9844,4.28125 C47.1198,4.28125 46.5,4.5026 46.125,4.94531 C45.75,5.38802 45.5625,6.07292 45.5625,7 C45.5625,7.9375 45.75,8.6276 46.125,9.07031 C46.5,9.51302 47.1198,9.73438 47.9844,9.73438 C48.276,9.73438 48.5573,9.69271 48.8281,9.60938 C49.1198,9.53646 49.401,9.42188 49.6719,9.26562 L49.6719,9.76562 C49.401,9.90104 49.1198,10 48.8281,10.0625 C48.526,10.125 48.2292,10.1562 47.9375,10.1562 C47.0625,10.1562 46.3646,9.91667 45.8438,9.4375 C45.3229,8.95833 45.0625,8.14323 45.0625,6.99219 C45.0625,5.84115 45.3229,5.02604 45.8438,4.54688 C46.3646,4.07812 47.0625,3.84375 47.9375,3.84375 C48.2292,3.84375 48.5365,3.88542 48.8594,3.96875 C49.1823,4.04167 49.4531,4.14583 49.6719,4.28125 M55.1875,5.01562 C54.8333,4.52604 54.349,4.28125 53.7344,4.28125 C53.1198,4.28125 52.6354,4.52604 52.2812,5.01562 C51.9271,5.49479 51.75,6.15104 51.75,6.98438 C51.75,7.83854 51.9271,8.51042 52.2812,9 C52.6354,9.48958 53.1198,9.73438 53.7344,9.73438 C54.349,9.73438 54.8333,9.48958 55.1875,9 C55.5417,8.5 55.7188,7.82812 55.7188,6.98438 C55.7188,6.16146 55.5417,5.50521 55.1875,5.01562 M53.7344,3.84375 C54.4948,3.84375 55.099,4.13021 55.5469,4.70312 C55.9948,5.27604 56.2188,6.03646 56.2188,6.98438 C56.2188,7.97396 55.9948,8.75521 55.5469,9.32812 C55.099,9.90104 54.4948,10.1875 53.7344,10.1875 C52.9531,10.1875 52.3385,9.90104 51.8906,9.32812 C51.4531,8.75521 51.2344,7.97396 51.2344,6.98438 C51.2344,6.02604 51.4583,5.26302 51.9062,4.69531 C52.3542,4.1276 52.9635,3.84375 53.7344,3.84375 M58.3281,1.64062 L58.8125,1.64062 L58.8125,10 L58.3281,10 L58.3281,1.64062 M64.9531,5.01562 C64.599,4.52604 64.1146,4.28125 63.5,4.28125 C62.8854,4.28125 62.401,4.52604 62.0469,5.01562 C61.6927,5.49479 61.5156,6.15104 61.5156,6.98438 C61.5156,7.83854 61.6927,8.51042 62.0469,9 C62.401,9.48958 62.8854,9.73438 63.5,9.73438 C64.1146,9.73438 64.599,9.48958 64.9531,9 C65.3073,8.5 65.4844,7.82812 65.4844,6.98438 C65.4844,6.16146 65.3073,5.50521 64.9531,5.01562 M63.5,3.84375 C64.2604,3.84375 64.8646,4.13021 65.3125,4.70312 C65.7604,5.27604 65.9844,6.03646 65.9844,6.98438 C65.9844,7.97396 65.7604,8.75521 65.3125,9.32812 C64.8646,9.90104 64.2604,10.1875 63.5,10.1875 C62.7188,10.1875 62.1042,9.90104 61.6562,9.32812 C61.2188,8.75521 61,7.97396 61,6.98438 C61,6.02604 61.224,5.26302 61.6719,4.69531 C62.1198,4.1276 62.7292,3.84375 63.5,3.84375 M71.3594,4.40625 C71.276,4.36458 71.1667,4.33333 71.0312,4.3125 C70.9062,4.29167 70.7552,4.28125 70.5781,4.28125 C69.9635,4.28125 69.4583,4.50521 69.0625,4.95312 C68.7396,5.31771 68.5781,5.94271 68.5781,6.82812 L68.5781,10 L68.0938,10 L68.0938,3.98438 L68.5781,3.98438 L68.5781,5.10938 C68.7448,4.78646 68.974,4.51562 69.2656,4.29688 C69.6615,3.99479 70.1302,3.84375 70.6719,3.84375 C70.8177,3.84375 70.9427,3.84896 71.0469,3.85938 C71.151,3.85938 71.2552,3.86979 71.3594,3.89062 L71.3594,4.40625 M76.9688,12.1719 L76.9688,12.5938 L71.25,12.5938 L71.25,12.1719 L76.9688,12.1719 M81.5156,4.15625 L81.5156,4.70312 C81.1615,4.50521 80.9427,4.39583 80.8594,4.375 C80.6094,4.32292 80.2969,4.29167 79.9219,4.28125 C79.3594,4.28125 78.9167,4.39062 78.5938,4.60938 C78.3438,4.79688 78.2188,5.11458 78.2188,5.5625 C78.2188,5.875 78.3385,6.11458 78.5781,6.28125 C78.8177,6.46875 79.1667,6.61458 79.625,6.71875 L79.9688,6.78125 C80.5417,6.90625 80.974,7.08333 81.2656,7.3125 C81.6094,7.58333 81.7865,7.92708 81.7969,8.34375 C81.7969,8.90625 81.6302,9.34896 81.2969,9.67188 C80.9427,9.99479 80.3646,10.1562 79.5625,10.1562 C79.125,10.1562 78.7917,10.125 78.5625,10.0625 C78.2812,9.98958 77.9896,9.89583 77.6875,9.78125 L77.6875,9.15625 C78.125,9.40625 78.4062,9.55208 78.5312,9.59375 C78.8854,9.6875 79.2396,9.73438 79.5938,9.73438 C80.1667,9.73438 80.5938,9.61458 80.875,9.375 C81.1562,9.125 81.2969,8.80729 81.2969,8.42188 C81.2969,8.08854 81.2031,7.84896 81.0156,7.70312 C80.7448,7.48438 80.3177,7.30729 79.7344,7.17188 L79.3906,7.09375 C78.8802,6.96875 78.4948,6.80208 78.2344,6.59375 C77.901,6.32292 77.7344,5.99479 77.7344,5.60938 C77.7344,4.98438 77.9349,4.53385 78.3359,4.25781 C78.737,3.98177 79.2292,3.84375 79.8125,3.84375 C80.3125,3.84375 80.6562,3.86979 80.8438,3.92188 C81.0729,3.98438 81.2969,4.0625 81.5156,4.15625 M88.5156,6.75 L88.5156,7.0625 L83.9531,7.0625 C83.9531,8.02083 84.1406,8.69792 84.5156,9.09375 C84.9323,9.52083 85.5469,9.73438 86.3594,9.73438 C86.5781,9.73438 86.8646,9.6875 87.2188,9.59375 C87.5729,9.5 87.9271,9.35938 88.2812,9.17188 L88.2812,9.6875 C87.9271,9.84375 87.5651,9.96094 87.1953,10.0391 C86.8255,10.1172 86.5312,10.1562 86.3125,10.1562 C85.3854,10.1562 84.6875,9.90625 84.2188,9.40625 C83.7083,8.875 83.4531,8.09375 83.4531,7.0625 C83.4531,5.98958 83.6823,5.1875 84.1406,4.65625 C84.6198,4.11458 85.2865,3.84375 86.1406,3.84375 C86.9219,3.84375 87.5156,4.10417 87.9219,4.625 C88.3177,5.16667 88.5156,5.875 88.5156,6.75 M88.0156,6.64062 C88.0156,5.79688 87.8229,5.18229 87.4375,4.79688 C87.125,4.45312 86.6927,4.28125 86.1406,4.28125 C85.5469,4.28125 85.0469,4.45833 84.6406,4.8125 C84.2656,5.14583 84.0417,5.75521 83.9688,6.64062 L88.0156,6.64062 M95.1406,6.375 L95.1406,10 L94.6406,10 L94.6406,6.40625 C94.6406,5.625 94.5156,5.07552 94.2656,4.75781 C94.0156,4.4401 93.6458,4.28125 93.1562,4.28125 C92.5833,4.28125 92.099,4.45312 91.7031,4.79688 C91.2865,5.14062 91.0781,5.73958 91.0781,6.59375 L91.0781,10 L90.5938,10 L90.5938,3.98438 L91.0781,3.98438 L91.0781,5.10938 C91.2552,4.74479 91.4896,4.46875 91.7812,4.28125 C92.1979,3.98958 92.6615,3.84375 93.1719,3.84375 C93.776,3.84375 94.2552,4.04688 94.6094,4.45312 C94.9635,4.84896 95.1406,5.48958 95.1406,6.375 M100.969,4.15625 L100.969,4.70312 C100.615,4.50521 100.396,4.39583 100.312,4.375 C100.062,4.32292 99.75,4.29167 99.375,4.28125 C98.8125,4.28125 98.3698,4.39062 98.0469,4.60938 C97.7969,4.79688 97.6719,5.11458 97.6719,5.5625 C97.6719,5.875 97.7917,6.11458 98.0312,6.28125 C98.2708,6.46875 98.6198,6.61458 99.0781,6.71875 L99.4219,6.78125 C99.9948,6.90625 100.427,7.08333 100.719,7.3125 C101.062,7.58333 101.24,7.92708 101.25,8.34375 C101.25,8.90625 101.083,9.34896 100.75,9.67188 C100.396,9.99479 99.8177,10.1562 99.0156,10.1562 C98.5781,10.1562 98.2448,10.125 98.0156,10.0625 C97.7344,9.98958 97.4427,9.89583 97.1406,9.78125 L97.1406,9.15625 C97.5781,9.40625 97.8594,9.55208 97.9844,9.59375 C98.3385,9.6875 98.6927,9.73438 99.0469,9.73438 C99.6198,9.73438 100.047,9.61458 100.328,9.375 C100.609,9.125 100.75,8.80729 100.75,8.42188 C100.75,8.08854 100.656,7.84896 100.469,7.70312 C100.198,7.48438 99.7708,7.30729 99.1875,7.17188 L98.8438,7.09375 C98.3333,6.96875 97.9479,6.80208 97.6875,6.59375 C97.3542,6.32292 97.1875,5.99479 97.1875,5.60938 C97.1875,4.98438 97.388,4.53385 97.7891,4.25781 C98.1901,3.98177 98.6823,3.84375 99.2656,3.84375 C99.7656,3.84375 100.109,3.86979 100.297,3.92188 C100.526,3.98438 100.75,4.0625 100.969,4.15625 M106.859,5.01562 C106.505,4.52604 106.021,4.28125 105.406,4.28125 C104.792,4.28125 104.307,4.52604 103.953,5.01562 C103.599,5.49479 103.422,6.15104 103.422,6.98438 C103.422,7.83854 103.599,8.51042 103.953,9 C104.307,9.48958 104.792,9.73438 105.406,9.73438 C106.021,9.73438 106.505,9.48958 106.859,9 C107.214,8.5 107.391,7.82812 107.391,6.98438 C107.391,6.16146 107.214,5.50521 106.859,5.01562 M105.406,3.84375 C106.167,3.84375 106.771,4.13021 107.219,4.70312 C107.667,5.27604 107.891,6.03646 107.891,6.98438 C107.891,7.97396 107.667,8.75521 107.219,9.32812 C106.771,9.90104 106.167,10.1875 105.406,10.1875 C104.625,10.1875 104.01,9.90104 103.562,9.32812 C103.125,8.75521 102.906,7.97396 102.906,6.98438 C102.906,6.02604 103.13,5.26302 103.578,4.69531 C104.026,4.1276 104.635,3.84375 105.406,3.84375 M113.266,4.40625 C113.182,4.36458 113.073,4.33333 112.938,4.3125 C112.812,4.29167 112.661,4.28125 112.484,4.28125 C111.87,4.28125 111.365,4.50521 110.969,4.95312 C110.646,5.31771 110.484,5.94271 110.484,6.82812 L110.484,10 L110,10 L110,3.98438 L110.484,3.98438 L110.484,5.10938 C110.651,4.78646 110.88,4.51562 111.172,4.29688 C111.568,3.99479 112.036,3.84375 112.578,3.84375 C112.724,3.84375 112.849,3.84896 112.953,3.85938 C113.057,3.85938 113.161,3.86979 113.266,3.89062 L113.266,4.40625"/>
</g>

<g fill="none" stroke="#000000" stroke-opacity="1" stroke-width="1" stroke-linecap="square" stroke-linejoin="bevel" transform="matrix(1.99934,0,0,1.99934,298.016,7.99735)"
font-family="sans" font-size="11" font-weight="100" font-style="normal" 
>
</g>

<g fill="none" stroke="#000000" stroke-opacity="1" stroke-width="1" stroke-linecap="square" stroke-linejoin="bevel" transform="matrix(1.99934,0,0,1.99934,298.016,7.99735)"
font-family="Sans Serif" font-size="9" font-weight="400" font-style="normal" 
>
</g>

<g fill="none" stroke="#000000" stroke-opacity="1" stroke-width="1" stroke-linecap="square" stroke-linejoin="bevel" transform="matrix(1.99934,0,0,1.99934,0.000799735,71.9761)"
font-family="Sans Serif" font-size="9" font-weight="400" font-style="normal" 
>
</g>

<g fill="#000000" fill-opacity="1" stroke="#000000" stroke-opacity="1" stroke-width="1" stroke-linecap="square" stroke-linejoin="round" transform="matrix(1.99934,0,0,1.99934,0.000799735,71.9761)"
font-family="Sans Serif" font-size="9" font-weight="400" font-style="normal" 
>
<path vector-effect="none" fill-rule="evenodd" d="M259.27,-18 L259.27,-14.43 L269.47,-18 L259.27,-21.57 L259.27,-18"/>
</g>

<g fill="none" stroke="#000000" stroke-opacity="1" stroke-width="1" stroke-linecap="square" stroke-linejoin="bevel" transform="matrix(1.99934,0,0,1.99934,0.000799735,71.9761)"
font-family="Sans Serif" font-size="9" font-weight="400" font-style="normal" 
>
</g>

<g fill="none" stroke="#000000" stroke-opacity="1" stroke-width="1" stroke-linecap="square" stroke-linejoin="bevel" transform="matrix(1,0,0,1,0,0)"
font-family="Sans Serif" font-size="9" font-weight="400" font-style="normal" 
>
</g>
</g>
</svg>
